<svg xmlns="http://www.w3.org/2000/svg" width="128" height="180" viewBox="0 0 128 180"><defs><linearGradient id="wall" x2="0" y2="1"><stop stop-color="#526375"/><stop offset="1" stop-color="#2a3946"/></linearGradient><linearGradient id="floor" x2="0" y2="1"><stop stop-color="#65706f"/><stop offset="1" stop-color="#3b454a"/></linearGradient><linearGradient id="wood" x2="0" y2="1"><stop stop-color="#9d8970"/><stop offset="1" stop-color="#5e554a"/></linearGradient><linearGradient id="cloth" x2="1" y2="1"><stop stop-color="#c29d68"/><stop offset="1" stop-color="#806344"/></linearGradient><linearGradient id="metal" x2="1" y2="1"><stop stop-color="#9caeb3"/><stop offset=".45" stop-color="#657f86"/><stop offset="1" stop-color="#33494f"/></linearGradient><linearGradient id="coat" x2="1" y2="1"><stop stop-color="#c5a36f"/><stop offset=".5" stop-color="#98724b"/><stop offset="1" stop-color="#634f3b"/></linearGradient><linearGradient id="suit" x2="1" y2="0"><stop stop-color="#30434e"/><stop offset=".5" stop-color="#5a727a"/><stop offset="1" stop-color="#24323e"/></linearGradient><pattern id="inkgrain" width="19" height="23" patternUnits="userSpaceOnUse"><path d="M2 4l3-1 M12 8l4-1 M4 17l2 2 M15 21l2-3" stroke="#162c33" stroke-opacity=".16" stroke-width=".7"/><path d="M8 1l3 1 M1 11l2 1 M10 16l4-1" stroke="#f5edcb" stroke-opacity=".14" stroke-width=".65"/></pattern></defs><g id="far_arm"><path d="M37 61L47 67L40 87L39 108L28 111L25 103L29 83Z" fill="url(#suit)" stroke="#21343e" stroke-width="3"/><path d="M37 61L47 67L40 87L39 108L28 111L25 103L29 83Z" fill="url(#inkgrain)"/><path d="M29 103l10 2-1 12-6 3-7-7Z" fill="#b69678" stroke="#283c43" stroke-width="2"/><path d="M29 103l10 2-1 12-6 3-7-7Z" fill="url(#inkgrain)"/><path d="M29 94l11 1" stroke="#adb9a6" stroke-width="3"/></g><g id="far_leg"><path d="M44 105L61 109L61 137L55 166L39 166L43 139Z" fill="url(#suit)" stroke="#23353f" stroke-width="3"/><path d="M44 105L61 109L61 137L55 166L39 166L43 139Z" fill="url(#inkgrain)"/><path d="M41 155L57 158L56 171L34 172L34 167Z" fill="#334650" stroke="#1c2b34" stroke-width="3"/><path d="M41 155L57 158L56 171L34 172L34 167Z" fill="url(#inkgrain)"/><path d="M43 137l15 2" stroke="#a1afa4" stroke-width="2"/></g><g id="near_leg"><path d="M64 109L82 105L87 139L84 166L69 167L68 141Z" fill="url(#suit)" stroke="#23353f" stroke-width="3"/><path d="M64 109L82 105L87 139L84 166L69 167L68 141Z" fill="url(#inkgrain)"/><path d="M70 157L85 155L89 167L90 172H68Z" fill="#334650" stroke="#1c2b34" stroke-width="3"/><path d="M70 157L85 155L89 167L90 172H68Z" fill="url(#inkgrain)"/><path d="M71 139l13-2" stroke="#a1afa4" stroke-width="2"/></g><g id="torso"><path d="M39 58L80 56L91 77L83 117L64 124L40 114L36 80Z" fill="url(#suit)" stroke="#22343e" stroke-width="3"/><path d="M39 58L80 56L91 77L83 117L64 124L40 114L36 80Z" fill="url(#inkgrain)"/><path d="M39 52L81 52L95 73L92 90L74 91L64 104L49 91L29 86L32 70Z" fill="url(#coat)" stroke="#443e34" stroke-width="3"/><path d="M39 52L81 52L95 73L92 90L74 91L64 104L49 91L29 86L32 70Z" fill="url(#inkgrain)"/><path d="M37 77L50 84L64 98L77 84L91 78 M39 65L64 86L86 64" fill="none" stroke="#dac09a" stroke-width="2"/><path d="M80 58L46 105" stroke="#283a43" stroke-width="8"/><path d="M80 58L46 105" stroke="#aeac89" stroke-width="4"/><path d="M39 94L60 99L58 119L37 113Z" fill="#497482" stroke="#203c48" stroke-width="3"/><path d="M39 94L60 99L58 119L37 113Z" fill="url(#inkgrain)"/><path d="M40 98l18 4-3 8-17-5Z" fill="#7b9e9e"/><path d="M40 98l18 4-3 8-17-5Z" fill="url(#inkgrain)"/><path d="M47 103v7" stroke="#d6c598" stroke-width="3"/></g><g id="head"><path d="M41 27L48 15L63 9L78 14L85 27L83 46L70 58L55 58L42 47L37 34Z" fill="#809792" stroke="#283d46" stroke-width="3"/><path d="M41 27L48 15L63 9L78 14L85 27L83 46L70 58L55 58L42 47L37 34Z" fill="url(#inkgrain)"/><path d="M46 28L52 21L72 21L79 29L76 47L67 54L56 51L47 42Z" fill="#b79778" stroke="#35433f" stroke-width="2"/><path d="M46 28L52 21L72 21L79 29L76 47L67 54L56 51L47 42Z" fill="url(#inkgrain)"/><path d="M42 30L48 17L63 12L78 17L83 30L74 27L68 22L55 24L48 32Z" fill="#a9b6a6" stroke="#4c696c" stroke-width="2"/><path d="M42 30L48 17L63 12L78 17L83 30L74 27L68 22L55 24L48 32Z" fill="url(#inkgrain)"/><path d="M47 29L78 28L76 38L49 38Z" fill="#304954" stroke="#d9c59e" stroke-width="2"/><path d="M47 29L78 28L76 38L49 38Z" fill="url(#inkgrain)"/><path d="M50 32L60 32 M66 32L74 31" stroke="#99c1ca" stroke-width="2"/><path d="M60 45l9 1" stroke="#735841" stroke-width="2"/><path d="M43 46L56 57L69 60L82 48" fill="none" stroke="#d0ba98" stroke-width="4"/></g><g id="near_arm"><path d="M82 61L93 64L99 85L100 108L89 113L86 103L85 85Z" fill="url(#suit)" stroke="#21343e" stroke-width="3"/><path d="M82 61L93 64L99 85L100 108L89 113L86 103L85 85Z" fill="url(#inkgrain)"/><path d="M90 105l10-1 4 10-6 6-8-2Z" fill="#b69678" stroke="#283c43" stroke-width="2"/><path d="M90 105l10-1 4 10-6 6-8-2Z" fill="url(#inkgrain)"/><path d="M88 96l11-2" stroke="#adb9a6" stroke-width="3"/></g></svg>
