<svg xmlns="http://www.w3.org/2000/svg" width="128" height="180" viewBox="0 0 128 180"><defs><linearGradient id="wall" x2="0" y2="1"><stop stop-color="#526375"/><stop offset="1" stop-color="#2a3946"/></linearGradient><linearGradient id="floor" x2="0" y2="1"><stop stop-color="#65706f"/><stop offset="1" stop-color="#3b454a"/></linearGradient><linearGradient id="wood" x2="0" y2="1"><stop stop-color="#9d8970"/><stop offset="1" stop-color="#5e554a"/></linearGradient><linearGradient id="cloth" x2="1" y2="1"><stop stop-color="#c29d68"/><stop offset="1" stop-color="#806344"/></linearGradient><linearGradient id="metal" x2="1" y2="1"><stop stop-color="#9caeb3"/><stop offset=".45" stop-color="#657f86"/><stop offset="1" stop-color="#33494f"/></linearGradient><linearGradient id="coat" x2="1" y2="1"><stop stop-color="#c5a36f"/><stop offset=".5" stop-color="#98724b"/><stop offset="1" stop-color="#634f3b"/></linearGradient><linearGradient id="suit" x2="1" y2="0"><stop stop-color="#30434e"/><stop offset=".5" stop-color="#5a727a"/><stop offset="1" stop-color="#24323e"/></linearGradient><pattern id="inkgrain" width="19" height="23" patternUnits="userSpaceOnUse"><path d="M2 4l3-1 M12 8l4-1 M4 17l2 2 M15 21l2-3" stroke="#162c33" stroke-opacity=".16" stroke-width=".7"/><path d="M8 1l3 1 M1 11l2 1 M10 16l4-1" stroke="#f5edcb" stroke-opacity=".14" stroke-width=".65"/></pattern></defs><path d="M45 25L52 14L68 11L80 19L82 37L75 57L57 59L46 47Z" fill="#6a7f81" stroke="#253740" stroke-width="3"/><path d="M45 25L52 14L68 11L80 19L82 37L75 57L57 59L46 47Z" fill="url(#inkgrain)"/><path d="M65 22L81 25L80 33L89 37L82 43L80 50L66 53L59 44V31Z" fill="#b99678" stroke="#343e3e" stroke-width="2"/><path d="M65 22L81 25L80 33L89 37L82 43L80 50L66 53L59 44V31Z" fill="url(#inkgrain)"/><path d="M45 28L52 17L69 14L79 21L63 24L57 39L57 54L45 48Z" fill="#9dad9f" stroke="#354f57" stroke-width="2"/><path d="M45 28L52 17L69 14L79 21L63 24L57 39L57 54L45 48Z" fill="url(#inkgrain)"/><path d="M68 28L81 29L80 36L69 36Z" fill="#304653" stroke="#dfcaa1" stroke-width="2"/><path d="M68 28L81 29L80 36L69 36Z" fill="url(#inkgrain)"/><path d="M73 30h5" stroke="#9ac3ca" stroke-width="2"/><path d="M71 44h9" stroke="#665344" stroke-width="2"/></svg>
